<svg height="48pt" viewBox="0 0 48 48" width="48pt" xmlns="http://www.w3.org/2000/svg" xmlns:xlink="http://www.w3.org/1999/xlink"><linearGradient id="a" gradientTransform="matrix(58 0 0 58.666667 6.666667 2.666667)" gradientUnits="userSpaceOnUse" x1=".220786" x2=".902249" y1=".04724" y2=".906146"><stop offset=".02608695652" stop-color="#ea8bf3"/><stop offset=".98695652174" stop-color="#826ef5"/></linearGradient><path d="m13.007812 2.6660156c-3.4999995 0-6.3417964 2.8417969-6.3417964 6.3417969v9.6582035c0 1.472 1.0820625 2.667968 2.4140625 2.667968 1.3306669 0 2.4121099-1.195968 2.4121099-2.667968v-6.861328c-.000001-2.1000005 1.704687-3.804688 3.804687-3.804688h33.40625c2.1 0 3.804687 1.7046875 3.804687 3.804688v17.529296 1.332032 21.529296c.000001 2.100001-1.704687 3.804688-3.804687 3.804688h-33.40625c-2.1 0-3.804687-1.704687-3.804687-3.804688v-22.861328c0-1.472-1.081443-2.667968-2.4121099-2.667968-1.332 0-2.4140625 1.195968-2.4140625 2.667968v25.658204c0 3.5 2.8417969 6.341796 6.3417964 6.341796h37.984376c3.348899 0 6.265703-2.799624 6.269531-6.455078l.048828-45.8535154c.003671-3.5107894-2.96946-6.359375-6.318359-6.359375zm22.84961 16.8125004a1.50015 1.50015 0 0 0 -1.394531 1.109375l-6 21a1.5002355 1.5002355 0 1 0 2.886718.824218l6-21a1.50015 1.50015 0 0 0 -1.492187-1.933593zm-11.927734 3.585937a1.50015 1.50015 0 0 0 -1.322266.769531l-4 6.916016a1.50015 1.50015 0 0 0 0 1.5l4 6.916016a1.5003821 1.5003821 0 1 0 2.597656-1.5l-3.566406-6.166016 3.566406-6.166016a1.50015 1.50015 0 0 0 -1.27539-2.269531zm16.90625.005859a1.50015 1.50015 0 0 0 -1.228516 2.267579l3.564453 6.162109-3.564453 6.162109a1.50015 1.50015 0 1 0 2.595703 1.501953l4-6.914062a1.50015 1.50015 0 0 0 0-1.5l-4-6.914062a1.50015 1.50015 0 0 0 -1.367187-.765626z" fill="url(#a)" fill-rule="evenodd" stroke-width="1.333333" transform="scale(.75)"/></svg>